 <svg width="106" height="52" viewBox="0 0 106 52" fill="none" xmlns="http://www.w3.org/2000/svg">
                  <path d="M41.5781 48.1717C41.5781 37.4916 41.5781 26.9058 41.5781 16.3199C41.5074 16.3076 41.4367 16.2954 41.366 16.2831C40.6358 18.2064 39.8986 20.1273 39.1765 22.0534C35.6291 31.5158 32.079 40.9773 28.5566 50.4483C28.3347 51.0451 28.0771 51.2871 27.3957 51.2622C25.8933 51.2073 24.3863 51.2102 22.8835 51.2579C22.2421 51.2782 22.0103 51.0506 21.7996 50.4877C16.8448 37.247 11.8627 24.0158 6.89428 10.7799C6.69011 10.236 6.52974 9.72419 5.68209 10.1422C5.68209 23.7656 5.68209 37.4412 5.68209 51.1795C3.76114 51.1795 1.91515 51.1795 0 51.1795C0 34.4287 0 17.6735 0 0.847537C3.00796 0.847537 6.0303 0.847537 9.12328 0.847537C10.4126 4.30367 11.725 7.81139 13.0301 11.3216C16.9135 21.767 20.7908 32.2145 24.6909 42.6542C24.8113 42.9764 25.1567 43.2208 25.3971 43.5015C25.6142 43.2388 25.9234 43.0079 26.0351 42.7088C31.1249 29.0851 36.1977 15.4556 41.2701 1.82587C41.3893 1.50562 41.4804 1.17572 41.5951 0.817589C41.7874 0.802546 41.9794 0.774419 42.1713 0.774416C48.4836 0.774322 54.7961 0.743326 61.108 0.792027C64.7578 0.820188 68.2287 1.58509 71.3171 3.57318C71.8576 3.92109 72.3629 4.31953 72.958 4.74754C74.754 2.99382 76.9189 1.71432 79.4028 1.07683C85.9506 -0.603657 92.3941 -0.451569 98.5762 2.49209C100.474 3.39597 102.018 4.75726 103.325 6.48366C102.409 7.68058 101.518 8.91265 100.547 10.0828C100.039 10.6949 99.4879 10.4681 99.0075 9.93279C97.3216 8.05428 95.2457 6.72801 92.7667 6.04251C88.8456 4.95822 84.905 4.89768 80.9932 6.07562C79.2615 6.59707 77.834 7.59145 76.8808 9.1042C76.6719 9.43561 76.5451 9.96493 76.6643 10.3133C77.4421 12.587 77.6354 14.9145 77.6035 17.2872C77.5977 17.7177 77.8359 18.2764 78.1627 18.5653C80.1305 20.3049 82.6326 20.9352 85.1382 21.5562C89.2016 22.5635 93.369 23.2094 97.2277 24.9222C105.965 28.8002 108.439 40.0902 102.001 46.9227C99.2833 49.8063 95.7431 51.195 91.8323 51.6941C86.3958 52.3879 81.0728 51.9769 76.0336 49.6804C72.9223 48.2624 70.3601 46.2368 68.5552 43.3722C68.2412 42.8739 68.2198 42.5383 68.6572 42.0775C69.5154 41.1735 70.2822 40.1898 71.1003 39.2499C71.7799 38.4689 72.2857 38.4762 72.8395 39.2998C76.7245 45.0771 82.4677 46.9844 89.2874 46.5406C90.7031 46.4485 92.139 46.1593 93.491 45.7389C96.9065 44.6769 99.0036 41.9145 99.1814 38.4756C99.4134 33.9878 97.8953 31.4768 93.5843 29.7615C91.4899 28.9282 89.2625 28.3727 87.0575 27.8348C83.1792 26.8887 79.2247 26.1886 75.7012 24.0759C74.5121 26.0732 72.9797 27.6786 71.0112 28.8799C67.9334 30.7584 64.5057 31.438 60.9303 31.4984C56.9414 31.5658 52.9508 31.5413 48.961 31.5564C48.6075 31.5577 48.2541 31.5566 47.8094 31.5566C47.8094 38.1544 47.8094 44.6828 47.8094 51.2447C45.7038 51.2447 43.6906 51.2447 41.5781 51.2447C41.5781 50.2039 41.5781 49.2349 41.5781 48.1717ZM54.0911 19.7328C54.149 19.7682 54.2069 19.8036 54.2478 19.8468C54.2478 19.8468 54.2599 19.8329 54.2438 19.9805C54.2512 20.1041 54.2159 20.2506 54.2724 20.3477C54.9695 21.5482 55.6779 22.7427 56.3961 23.9316C56.4206 23.9721 56.5775 23.9386 56.6306 23.9337C56.6306 23.9337 56.6711 23.9459 56.652 24.0467C56.6985 24.0945 56.7451 24.1422 56.8342 24.25C56.8342 24.25 56.8337 24.3226 56.81 24.4796C57.0441 25.4917 57.1891 26.5455 58.2837 27.2723C58.3185 27.3433 58.3532 27.4142 58.4156 27.5392L58.5022 27.5432C58.5022 27.5432 58.5488 27.4707 58.5712 27.3591C58.6203 27.3026 58.6694 27.246 58.8614 27.1891C58.9524 27.1113 59.0769 27.0501 59.1291 26.953C59.6447 25.9957 60.2054 25.0554 60.6382 24.0638C61.0295 23.1671 61.2774 22.2124 61.6046 21.2685C61.6046 21.2685 61.6069 21.2472 61.7577 21.3125C62.7248 21.1895 62.5155 20.4069 62.6785 19.8504C62.6785 19.8504 62.6558 19.8258 62.7933 19.8298C62.8767 19.698 62.9602 19.5661 63.0794 19.4667C63.0794 19.4667 63.0415 19.4368 63.1895 19.4608C63.2862 19.4539 63.4008 19.4773 63.4768 19.4356C65.1375 18.5246 66.7967 17.611 68.4461 16.6812C68.5889 16.6007 68.6613 16.4046 68.8116 16.2165C68.8116 16.2165 68.8772 16.2162 69.0428 16.2459C69.8427 16.1494 70.6493 16.066 71.1279 15.3019C71.1279 15.3019 71.0851 15.2744 71.2431 15.3017C71.924 15.2074 71.857 14.6212 71.5302 14.4861C70.5881 14.0967 69.5618 13.8961 68.5727 13.6179C68.5727 13.6179 68.5703 13.6224 68.5565 13.4876C67.7104 13.1543 66.8643 12.821 66.0214 12.4851C66.0214 12.4851 66.0195 12.4885 66.0105 12.3564C65.2625 11.7993 64.5177 11.2379 63.7564 10.6982C63.7201 10.6725 63.5372 10.8383 63.305 10.8749C63.2274 10.7845 63.1499 10.6941 63.0819 10.4584C62.5577 9.5938 62.0517 8.7182 61.4998 7.87037C61.2926 7.55216 60.9784 7.29847 60.7234 7.01064C60.7234 7.01064 60.7152 7.01856 60.7293 6.87241C60.5345 6.54039 60.3397 6.20837 60.093 5.83277C60.093 5.83277 60.0901 5.7666 60.1208 5.61284C59.988 5.38817 59.8553 5.16351 59.6784 4.90289C59.6784 4.90289 59.6817 4.84733 59.7181 4.69874C59.541 4.39743 59.3639 4.09612 59.1388 3.72578C59.1388 3.72578 59.1318 3.64302 59.1597 3.51468C59.2237 3.13058 59.4158 2.67337 58.6985 2.73088C58.6985 2.73088 58.6795 2.72732 58.701 2.62832C58.6516 2.5866 58.6022 2.54488 58.462 2.47879C58.462 2.47879 58.37 2.49911 58.2689 2.54417C58.2513 2.61092 58.2337 2.67768 58.21 2.81139C58.21 2.81139 58.1579 2.85614 58.0176 2.86581C57.0663 3.45329 57.1598 4.43626 56.9948 5.31096C56.9948 5.31096 57.0139 5.32412 56.8743 5.33286C56.255 6.03991 55.6942 6.7702 55.8091 7.88337C55.7419 7.9695 55.6748 8.05563 55.4642 8.156C55.3237 8.46988 55.1831 8.78376 55.031 9.08684C55.031 9.08684 55.0438 9.09617 54.9059 9.09762C54.2996 9.794 53.6933 10.4904 53.0722 11.1701C53.0722 11.1701 53.0931 11.179 52.9912 11.1957C52.9514 11.2474 52.9115 11.299 52.8725 11.3524C52.8725 11.3524 52.8708 11.3513 52.7139 11.3435C52.3952 11.4559 52.0635 11.5427 51.7603 11.6855C50.8904 12.0951 50.0431 12.5501 49.1664 12.9452C48.0005 13.4705 46.8077 13.9408 45.6487 14.4791C45.5138 14.5418 45.5203 14.8864 45.5452 15.1087C45.5452 15.1087 45.6132 15.1568 45.6256 15.2883C45.8909 16.0171 46.6235 15.958 47.2014 16.2016C48.4441 16.7252 49.63 17.3727 50.8643 17.9166C51.2309 18.0782 51.6814 18.0636 52.2088 18.1469C52.2983 18.2143 52.3879 18.2817 52.4764 18.4899C52.8123 18.6845 53.1483 18.879 53.4617 19.0934C53.4617 19.0934 53.4821 19.0716 53.4689 19.2174C53.6722 19.3575 53.8754 19.4976 54.0583 19.6551C54.0583 19.6551 54.0707 19.6318 54.0911 19.7328Z" fill="white"/>
                  <path d="M45.6132 15.1568C45.6132 15.1568 45.5452 15.1087 45.5361 15.0511C46.1095 14.7202 46.6986 14.459 47.2735 14.1714C49.1421 13.2366 51.0054 12.2921 52.8708 11.3513C52.8708 11.3513 52.8724 11.3524 52.926 11.3471C53.0173 11.2875 53.0552 11.2332 53.093 11.179C53.093 11.179 53.0722 11.1701 53.1462 11.1695C53.828 10.478 54.4359 9.78707 55.0437 9.09617C55.0437 9.09617 55.031 9.08684 55.0951 9.06413C55.3087 8.74153 55.4582 8.44164 55.6077 8.14176C55.6748 8.05563 55.7419 7.9695 55.8743 7.79425C56.2977 6.91146 56.6558 6.11779 57.0139 5.32412C57.0139 5.32412 56.9948 5.31095 57.0597 5.28181C57.469 4.45382 57.8134 3.65498 58.1579 2.85613C58.1579 2.85613 58.21 2.81138 58.2599 2.75195C58.3299 2.62805 58.3499 2.56358 58.37 2.49911C58.37 2.49911 58.4619 2.47879 58.5073 2.53733C58.5685 2.66327 58.6108 2.70708 58.6795 2.72731C58.6795 2.72731 58.6985 2.73088 58.6969 2.79999C58.8407 3.12707 58.9862 3.38504 59.1317 3.64302C59.1317 3.64302 59.1388 3.72577 59.1591 3.82537C59.3468 4.23242 59.5143 4.53987 59.6817 4.84732C59.6817 4.84732 59.6783 4.90289 59.6977 4.98697C59.8413 5.30289 59.9657 5.53474 60.0901 5.76659C60.0901 5.76659 60.093 5.83277 60.1189 5.92033C60.335 6.34478 60.5251 6.68167 60.7152 7.01855C60.7152 7.01855 60.7234 7.01064 60.7199 7.08151C61.5018 8.30279 62.2871 9.45321 63.0724 10.6036C63.1499 10.6941 63.2274 10.7845 63.3876 10.9492C64.3199 11.5118 65.1697 12.0002 66.0195 12.4885C66.0195 12.4885 66.0214 12.4851 66.056 12.5417C66.9172 12.9396 67.7437 13.281 68.5703 13.6224C68.5703 13.6224 68.5726 13.6179 68.6066 13.6758C69.3946 14.0615 70.1584 14.371 70.8934 14.7344C71.02 14.797 71.0243 15.0886 71.0851 15.2744C71.0851 15.2744 71.1279 15.3019 71.0364 15.2907C70.2557 15.5918 69.5664 15.904 68.8771 16.2162C68.8771 16.2162 68.8116 16.2165 68.7167 16.2391C68.1166 16.4786 67.5789 16.645 67.1122 16.9221C65.7402 17.7368 64.3964 18.5954 63.0415 19.4368C63.0415 19.4368 63.0794 19.4667 63.0032 19.4638C62.8366 19.5825 62.7462 19.7041 62.6558 19.8258C62.6558 19.8258 62.6784 19.8504 62.6066 19.8584C62.2254 20.3267 61.9162 20.787 61.6069 21.2472C61.6069 21.2472 61.6046 21.2685 61.5463 21.3128C60.5648 23.3011 59.6416 25.2453 58.7184 27.1894C58.6693 27.246 58.6203 27.3025 58.5196 27.4147C58.468 27.4704 58.388 27.4852 58.388 27.4852C58.3532 27.4142 58.3184 27.3433 58.2316 27.1672C57.7309 26.149 57.2823 25.2358 56.8336 24.3226C56.8336 24.3226 56.8342 24.25 56.8218 24.1693C56.7634 24.0411 56.7172 23.9935 56.6711 23.9459C56.6711 23.9459 56.6306 23.9337 56.6474 23.868C55.8627 22.4791 55.0613 21.156 54.2598 19.8329C54.2598 19.8329 54.2478 19.8468 54.248 19.7914C54.189 19.7012 54.1298 19.6665 54.0707 19.6318C54.0707 19.6318 54.0583 19.6551 54.0535 19.5885C53.8598 19.3718 53.671 19.2217 53.4821 19.0716C53.4821 19.0716 53.4617 19.0934 53.4508 19.0246C53.119 18.7537 52.7982 18.5514 52.4774 18.3492C52.3878 18.2817 52.2983 18.2143 52.1186 18.083C49.89 17.065 47.7516 16.1109 45.6132 15.1568Z" fill="#00B8F0"/>
                </svg>
